# xmcd
# 
# Track frame offsets:
#     150
#     12048
#     23159
#     35991
#     49652
#     62651
#     73909
#     83678
#     97151
#     110666
#     122927
#     134958
#     150695
#     166662
#     182350
#     201479
#     216094
#     229588
#     243660
#     260135
#     278972
#     297704
#     314082
#     330139
#     347359
# 
# Disc length: 4840
# 
# Revision: 2
# Processed by: cddbd v1.5.2PL0 Copyright (c) Steve Scherf et al.
# Submitted via: fre:ac v1.0.31
# 
DISCID=8412e619
DTITLE=Blues - Black and White Blues Guitars Disc  2
DYEAR=0
DGENRE=Blues
TTITLE0=John Lee Hooker - Guitar Lovin Man
TTITLE1=Jimmy Reed - Rockin with Reed
TTITLE2=Hubert Sumlin/Jody Williams/Howlin Wolf - Baby How Long
TTITLE3=Chuck Berry - Wee Wee Hours
TTITLE4=Bo Diddley - I'm a Man
TTITLE5=Jody Williams/Bo Diddley - I'm Looking for a Woman
TTITLE6=Alan Blind Owl Wilson - Rollin and Tumblin
TTITLE7=Johnny Winter - Going Down Slow
TTITLE8=Albert Collins - So Tired
TTITLE9=RL Burnside - Slippin and Slidin
TTITLE10=Henry Vestine - Sunflower Blues
TTITLE11=Walter Trout - Hell's On Down the Line
TTITLE12=John Mayall - Mama Talk to Your Daughter
TTITLE13=Michael Bloomfield - Kansas City
TTITLE14=BB King - Sweet Little Angel
TTITLE15=Peter Green - Strangers Blues
TTITLE16=Eric Clapton - Come and Love Me
TTITLE17=Buddy Guy - Broken Hearted Blues
TTITLE18=Mick Taylor - You Shook Me
TTITLE19=Rory Gallagher - Leaving Town Blues
TTITLE20=Harvey Mandel - Watch Out
TTITLE21=Mick Abrahams - The Same Way
TTITLE22=Kim Simmonds - Sweet Lovin Thing
TTITLE23=Dave Peverett - If You Be My Baby
TTITLE24=Chris Spedding - Dollar of My Pain
EXTD=
EXTT0=
EXTT1=
EXTT2=
EXTT3=
EXTT4=
EXTT5=
EXTT6=
EXTT7=
EXTT8=
EXTT9=
EXTT10=
EXTT11=
EXTT12=
EXTT13=
EXTT14=
EXTT15=
EXTT16=
EXTT17=
EXTT18=
EXTT19=
EXTT20=
EXTT21=
EXTT22=
EXTT23=
EXTT24=
PLAYORDER=
